# This file uses centimeters as units for non-parametric coordinates.

mtllib environment.mtl
g default
v 2.171700 2.278400 0.000000
v 15.163800 2.278400 0.000000
v 14.554200 2.507000 0.000000
v 15.163800 2.507000 0.000000
v 9.502100 5.402600 0.000000
v 9.502100 4.945400 0.000000
v 12.649200 4.945400 0.000000
v 14.554200 4.945400 0.000000
v 5.308600 5.494000 0.000000
v 6.385600 5.494000 0.000000
v 6.385600 5.402600 0.000000
v 7.978100 5.402600 0.000000
v 2.171700 5.494000 0.000000
v 3.251200 5.494000 0.000000
v 3.251200 5.265000 0.000000
v 5.308600 5.265000 0.000000
vt 0.000000 0.000000
vt 1.000000 0.000000
vt 0.000000 0.002466
vt 1.000000 0.308300
vt 0.000000 0.308300
vt 0.000000 0.246640
vt 0.000000 0.184980
vt 0.000000 0.061660
vt 0.000000 0.049328
vt 0.000000 0.123320
vt 0.000000 0.024664
vt 0.000000 0.012332
vt 0.000000 0.036996
vt 0.000000 0.009866
vt 0.000000 0.004933
vt 0.000000 0.007399
vn 0.000000 0.000000 1.000000
vn 0.000000 0.000000 1.000000
vn 0.000000 0.000000 1.000000
vn 0.000000 0.000000 1.000000
vn 0.000000 0.000000 1.000000
vn 0.000000 0.000000 1.000000
vn 0.000000 0.000000 1.000000
vn 0.000000 0.000000 1.000000
vn 0.000000 0.000000 1.000000
vn 0.000000 0.000000 1.000000
vn 0.000000 0.000000 1.000000
vn 0.000000 0.000000 1.000000
vn 0.000000 0.000000 1.000000
vn 0.000000 0.000000 1.000000
vn 0.000000 0.000000 1.000000
vn 0.000000 0.000000 1.000000
vn 0.000000 0.000000 1.000000
vn 0.000000 0.000000 1.000000
vn 0.000000 0.000000 1.000000
vn 0.000000 0.000000 1.000000
vn 0.000000 0.000000 1.000000
vn 0.000000 0.000000 1.000000
vn 0.000000 0.000000 1.000000
vn 0.000000 0.000000 1.000000
vn 0.000000 0.000000 1.000000
vn 0.000000 0.000000 1.000000
vn 0.000000 0.000000 1.000000
vn 0.000000 0.000000 1.000000
vn 0.000000 0.000000 1.000000
vn 0.000000 0.000000 1.000000
vn 0.000000 0.000000 1.000000
vn 0.000000 0.000000 1.000000
vn 0.000000 0.000000 1.000000
vn 0.000000 0.000000 1.000000
vn 0.000000 0.000000 1.000000
vn 0.000000 0.000000 1.000000
vn 0.000000 0.000000 1.000000
vn 0.000000 0.000000 1.000000
vn 0.000000 0.000000 1.000000
vn 0.000000 0.000000 1.000000
vn 0.000000 0.000000 1.000000
vn 0.000000 0.000000 1.000000
s off
g environment:Mesh
usemtl environment:initialShadingGroup
f 1/1/1 2/2/2 13/3/3
f 4/4/4 3/5/5 2/2/6
f 2/2/7 3/5/8 13/3/9
f 8/6/10 7/7/11 3/5/12
f 5/8/13 12/9/14 6/10/15
f 10/11/16 9/12/17 11/13/18
f 9/12/19 16/14/20 11/13/21
f 14/15/22 13/3/23 15/16/24
f 13/3/25 3/5/26 15/16/27
f 15/16/28 3/5/29 16/14/30
f 16/14/31 3/5/32 11/13/33
f 11/13/34 3/5/35 12/9/36
f 12/9/37 3/5/38 6/10/39
f 3/5/40 7/7/41 6/10/42
g default
v -2.540000 -2.763200 0.000000
v 22.491800 -2.763200 0.000000
v -2.540000 9.936800 0.000000
v 0.000000 9.936800 0.000000
v 22.491800 9.936800 0.000000
v 0.000000 0.000000 0.000000
v 0.050800 3.004800 0.000000
v 0.050800 9.809500 0.000000
v 2.171800 9.936800 0.000000
v 16.372801 0.241300 0.000000
v 16.287701 0.241300 0.000000
v 16.287701 0.000000 0.000000
v 15.981000 3.246000 0.000000
v 16.113100 3.246000 0.000000
v 16.287701 2.044700 0.000000
v 16.372801 2.044700 0.000000
v 0.411500 2.349500 0.000000
v 0.411500 3.004800 0.000000
v 16.078199 2.286000 0.000000
v 16.287701 2.286000 0.000000
v 16.113100 2.415800 0.000000
v 15.647800 3.195600 0.000000
v 15.609600 3.172800 0.000000
v 16.078199 2.387600 0.000000
v 2.171800 6.333000 0.000000
v 6.477100 6.333000 0.000000
v 12.103200 6.485000 0.000000
v 12.103200 6.587000 0.000000
v 15.981000 6.587000 0.000000
v 0.000000 2.349500 0.000000
v 9.290150 6.333000 0.000000
v 9.982000 6.333000 0.000000
v 9.982000 6.485000 0.000000
vt 1.000000 0.122505
vt 1.000000 0.125772
vt 1.000000 0.102087
vt 1.000000 0.125935
vt 1.000000 0.126098
vt 1.000000 0.126262
vt 1.000000 0.126016
vt 1.000000 0.126044
vt 1.000000 0.126071
vt 1.000000 0.126425
vt 1.000000 0.000000
vt 1.000000 0.126588
vt 1.000000 0.130672
vt 1.000000 0.131216
vt 1.000000 0.131488
vt 1.000000 0.130944
vt 1.000000 0.131761
vt 1.000000 0.132033
vt 1.000000 0.133394
vt 1.000000 0.134755
vt 1.000000 0.138839
vt 1.000000 0.163340
vt 1.000000 0.183757
vt 1.000000 0.142922
vt 1.000000 0.238204
vt 1.000000 0.272233
vt 1.000000 0.226861
vt 1.000000 0.306262
vt 0.000000 0.510436
vt 0.000000 0.000000
vt 1.000000 0.510436
vt 1.000000 0.408349
vt 1.000000 0.204175
vn 0.000000 0.000000 1.000000
vn 0.000000 0.000000 1.000000
vn 0.000000 0.000000 1.000000
vn 0.000000 0.000000 1.000000
vn 0.000000 0.000000 1.000000
vn 0.000000 0.000000 1.000000
vn 0.000000 0.000000 1.000000
vn 0.000000 0.000000 1.000000
vn 0.000000 0.000000 1.000000
vn 0.000000 0.000000 1.000000
vn 0.000000 0.000000 1.000000
vn 0.000000 0.000000 1.000000
vn 0.000000 0.000000 1.000000
vn 0.000000 0.000000 1.000000
vn 0.000000 0.000000 1.000000
vn 0.000000 0.000000 1.000000
vn 0.000000 0.000000 1.000000
vn 0.000000 0.000000 1.000000
vn 0.000000 0.000000 1.000000
vn 0.000000 0.000000 1.000000
vn 0.000000 0.000000 1.000000
vn 0.000000 0.000000 1.000000
vn 0.000000 0.000000 1.000000
vn 0.000000 0.000000 1.000000
vn 0.000000 0.000000 1.000000
vn 0.000000 0.000000 1.000000
vn 0.000000 0.000000 1.000000
vn 0.000000 0.000000 1.000000
vn 0.000000 0.000000 1.000000
vn 0.000000 0.000000 1.000000
vn 0.000000 0.000000 1.000000
vn 0.000000 0.000000 1.000000
vn 0.000000 0.000000 1.000000
vn 0.000000 0.000000 1.000000
vn 0.000000 0.000000 1.000000
vn 0.000000 0.000000 1.000000
vn 0.000000 0.000000 1.000000
vn 0.000000 0.000000 1.000000
vn 0.000000 0.000000 1.000000
vn 0.000000 0.000000 1.000000
vn 0.000000 0.000000 1.000000
vn 0.000000 0.000000 1.000000
vn 0.000000 0.000000 1.000000
vn 0.000000 0.000000 1.000000
vn 0.000000 0.000000 1.000000
vn 0.000000 -0.000000 1.000000
vn 0.000000 -0.000000 1.000000
vn 0.000000 0.000000 1.000000
vn 0.000000 -0.000000 1.000000
vn 0.000000 0.000000 1.000000
vn 0.000000 0.000000 1.000000
vn 0.000000 0.000000 1.000000
vn 0.000000 0.000000 1.000000
vn 0.000000 0.000000 1.000000
vn 0.000000 0.000000 1.000000
vn 0.000000 0.000000 1.000000
vn 0.000000 0.000000 1.000000
vn 0.000000 0.000000 1.000000
vn 0.000000 0.000000 1.000000
vn 0.000000 0.000000 1.000000
vn 0.000000 0.000000 1.000000
vn 0.000000 0.000000 1.000000
vn 0.000000 0.000000 1.000000
vn 0.000000 0.000000 1.000000
vn 0.000000 0.000000 1.000000
vn 0.000000 0.000000 1.000000
vn 0.000000 0.000000 1.000000
vn 0.000000 0.000000 1.000000
vn 0.000000 0.000000 1.000000
vn 0.000000 0.000000 1.000000
vn 0.000000 0.000000 1.000000
vn 0.000000 0.000000 1.000000
vn 0.000000 0.000000 1.000000
vn 0.000000 0.000000 1.000000
vn 0.000000 0.000000 1.000000
vn 0.000000 0.000000 1.000000
vn 0.000000 0.000000 1.000000
vn 0.000000 0.000000 1.000000
vn 0.000000 0.000000 1.000000
vn 0.000000 0.000000 1.000000
vn 0.000000 0.000000 1.000000
vn 0.000000 0.000000 1.000000
vn 0.000000 0.000000 1.000000
vn 0.000000 0.000000 1.000000
vn 0.000000 0.000000 1.000000
vn 0.000000 0.000000 1.000000
vn 0.000000 0.000000 1.000000
s off
g environment:Mesh1
usemtl environment:initialShadingGroup
f 25/17/43 41/18/44 21/19/45
f 41/18/46 42/20/47 21/19/48
f 43/21/49 44/22/50 42/20/51 47/23/52 48/24/53 49/25/54
f 42/20/55 44/22/56 21/19/57
f 44/22/58 45/26/59 21/19/60
f 21/19/61 45/26/62 18/27/63
f 29/28/64 30/29/65 45/26/66
f 45/26/67 30/29/68 18/27/69
f 38/30/70 39/31/71 37/32/72
f 39/31/73 40/33/74 37/32/75
f 35/34/76 36/35/77 40/33/78
f 40/33/79 36/35/80 37/32/81
f 31/36/82 32/37/83 36/35/84
f 27/38/85 28/39/86 26/40/87
f 33/41/88 34/42/89 46/43/90
f 34/42/91 23/44/92 46/43/93
f 19/45/94 17/46/95 20/47/96
f 20/47/97 17/46/98 24/48/99
f 24/48/100 17/46/101 23/44/102
f 23/44/103 17/46/104 46/43/105
f 46/43/106 17/46/107 22/49/108
f 17/46/109 18/27/110 22/49/111
f 22/49/112 18/27/113 28/39/114
f 28/39/115 18/27/116 26/40/117
f 26/40/118 18/27/119 32/37/120
f 18/27/121 30/29/122 32/37/123
f 32/37/124 30/29/125 36/35/126
f 30/29/127 37/32/128 36/35/129
