# This file uses centimeters as units for non-parametric coordinates.

mtllib environment.mtl
g default
v 2.171700 2.278400 0.000000
v 15.163800 2.278400 0.000000
v 14.554200 2.507000 0.000000
v 15.163800 2.507000 0.000000
v 9.502100 5.402600 0.000000
v 9.502100 4.945400 0.000000
v 12.649200 4.945400 0.000000
v 14.554200 4.945400 0.000000
v 5.308600 5.494000 0.000000
v 6.385600 5.494000 0.000000
v 6.385600 5.402600 0.000000
v 7.978100 5.402600 0.000000
v 2.171700 5.494000 0.000000
v 3.251200 5.494000 0.000000
v 3.251200 5.265000 0.000000
v 5.308600 5.265000 0.000000
vt 0.000000 0.000000
vt 1.000000 0.000000
vt 0.000000 0.002466
vt 1.000000 0.308300
vt 0.000000 0.308300
vt 0.000000 0.246640
vt 0.000000 0.184980
vt 0.000000 0.061660
vt 0.000000 0.049328
vt 0.000000 0.123320
vt 0.000000 0.024664
vt 0.000000 0.012332
vt 0.000000 0.036996
vt 0.000000 0.009866
vt 0.000000 0.004933
vt 0.000000 0.007399
vn 0.000000 0.000000 1.000000
vn 0.000000 0.000000 1.000000
vn 0.000000 0.000000 1.000000
vn 0.000000 0.000000 1.000000
vn 0.000000 0.000000 1.000000
vn 0.000000 0.000000 1.000000
vn 0.000000 0.000000 1.000000
vn 0.000000 0.000000 1.000000
vn 0.000000 0.000000 1.000000
vn 0.000000 0.000000 1.000000
vn 0.000000 0.000000 1.000000
vn 0.000000 0.000000 1.000000
vn 0.000000 0.000000 1.000000
vn 0.000000 0.000000 1.000000
vn 0.000000 0.000000 1.000000
vn 0.000000 0.000000 1.000000
vn 0.000000 0.000000 1.000000
vn 0.000000 0.000000 1.000000
vn 0.000000 0.000000 1.000000
vn 0.000000 0.000000 1.000000
vn 0.000000 0.000000 1.000000
vn 0.000000 0.000000 1.000000
vn 0.000000 0.000000 1.000000
vn 0.000000 0.000000 1.000000
vn 0.000000 0.000000 1.000000
vn 0.000000 0.000000 1.000000
vn 0.000000 0.000000 1.000000
vn 0.000000 0.000000 1.000000
vn 0.000000 0.000000 1.000000
vn 0.000000 0.000000 1.000000
vn 0.000000 0.000000 1.000000
vn 0.000000 0.000000 1.000000
vn 0.000000 0.000000 1.000000
vn 0.000000 0.000000 1.000000
vn 0.000000 0.000000 1.000000
vn 0.000000 0.000000 1.000000
vn 0.000000 0.000000 1.000000
vn 0.000000 0.000000 1.000000
vn 0.000000 0.000000 1.000000
vn 0.000000 0.000000 1.000000
vn 0.000000 0.000000 1.000000
vn 0.000000 0.000000 1.000000
s off
g Mesh
usemtl initialShadingGroup1
f 1/1/1 2/2/2 13/3/3
f 4/4/4 3/5/5 2/2/6
f 2/2/7 3/5/8 13/3/9
f 8/6/10 7/7/11 3/5/12
f 5/8/13 12/9/14 6/10/15
f 10/11/16 9/12/17 11/13/18
f 9/12/19 16/14/20 11/13/21
f 14/15/22 13/3/23 15/16/24
f 13/3/25 3/5/26 15/16/27
f 15/16/28 3/5/29 16/14/30
f 16/14/31 3/5/32 11/13/33
f 11/13/34 3/5/35 12/9/36
f 12/9/37 3/5/38 6/10/39
f 3/5/40 7/7/41 6/10/42
g default
v -38.000000 -35.000000 0.000000
v 47.900002 -35.000000 0.000000
v -38.000000 25.379999 0.000000
v 0.000000 25.379999 0.000000
v 47.900002 25.379999 0.000000
v 0.000000 0.000000 0.000000
v 0.050800 3.004800 0.000000
v 0.050800 9.809500 0.000000
v 2.177700 25.379999 0.000000
v 16.372801 0.241300 0.000000
v 16.287701 0.241300 0.000000
v 16.287701 0.000000 0.000000
v 15.981000 3.246000 0.000000
v 16.113100 3.246000 0.000000
v 16.287701 2.044700 0.000000
v 16.372801 2.044700 0.000000
v 0.411500 2.349500 0.000000
v 0.411500 3.004800 0.000000
v 16.078199 2.286000 0.000000
v 16.287701 2.286000 0.000000
v 16.113100 2.415800 0.000000
v 15.647800 3.195600 0.000000
v 15.609600 3.172800 0.000000
v 16.078199 2.387600 0.000000
v 2.171800 6.333000 0.000000
v 12.103200 6.485000 0.000000
v 12.103200 6.587000 0.000000
v 15.981000 6.587000 0.000000
v 0.000000 2.349500 0.000000
v 6.960000 6.333330 0.000000
v 6.960000 6.485000 0.000000
vt 1.000000 0.122505
vt 1.000000 0.125772
vt 1.000000 0.102087
vt 1.000000 0.126098
vt 1.000000 0.126262
vt 1.000000 0.126044
vt 1.000000 0.126071
vt 1.000000 0.126425
vt 1.000000 0.000000
vt 1.000000 0.126588
vt 1.000000 0.130672
vt 1.000000 0.131216
vt 1.000000 0.131488
vt 1.000000 0.130944
vt 1.000000 0.131761
vt 1.000000 0.132033
vt 1.000000 0.133394
vt 1.000000 0.134755
vt 1.000000 0.138839
vt 1.000000 0.163340
vt 1.000000 0.183757
vt 1.000000 0.142922
vt 1.000000 0.238204
vt 1.000000 0.272233
vt 1.000000 0.226861
vt 1.000000 0.306262
vt 0.000000 0.510436
vt 0.000000 0.000000
vt 1.000000 0.510436
vt 1.000000 0.408349
vt 1.000000 0.204175
vn 0.000000 0.000000 1.000000
vn 0.000000 0.000000 1.000000
vn 0.000000 0.000000 1.000000
vn 0.000000 0.000000 1.000000
vn 0.000000 0.000000 1.000000
vn 0.000000 0.000000 1.000000
vn 0.000000 0.000000 1.000000
vn 0.000000 0.000000 1.000000
vn 0.000000 0.000000 1.000000
vn 0.000000 0.000000 1.000000
vn 0.000000 0.000000 1.000000
vn 0.000000 0.000000 1.000000
vn 0.000000 0.000000 1.000000
vn 0.000000 0.000000 1.000000
vn 0.000000 0.000000 1.000000
vn 0.000000 0.000000 1.000000
vn 0.000000 0.000000 1.000000
vn 0.000000 0.000000 1.000000
vn 0.000000 0.000000 1.000000
vn 0.000000 0.000000 1.000000
vn 0.000000 0.000000 1.000000
vn 0.000000 0.000000 1.000000
vn 0.000000 0.000000 1.000000
vn 0.000000 0.000000 1.000000
vn 0.000000 0.000000 1.000000
vn 0.000000 0.000000 1.000000
vn 0.000000 0.000000 1.000000
vn 0.000000 0.000000 1.000000
vn 0.000000 0.000000 1.000000
vn 0.000000 0.000000 1.000000
vn 0.000000 0.000000 1.000000
vn 0.000000 0.000000 1.000000
vn 0.000000 0.000000 1.000000
vn 0.000000 0.000000 1.000000
vn 0.000000 0.000000 1.000000
vn 0.000000 0.000000 1.000000
vn 0.000000 0.000000 1.000000
vn 0.000000 0.000000 1.000000
vn 0.000000 0.000000 1.000000
vn 0.000000 -0.000000 1.000000
vn 0.000000 -0.000000 1.000000
vn 0.000000 0.000000 1.000000
vn 0.000000 -0.000000 1.000000
vn 0.000000 0.000000 1.000000
vn 0.000000 0.000000 1.000000
vn 0.000000 0.000000 1.000000
vn 0.000000 0.000000 1.000000
vn 0.000000 0.000000 1.000000
vn 0.000000 0.000000 1.000000
vn 0.000000 0.000000 1.000000
vn 0.000000 0.000000 1.000000
vn 0.000000 0.000000 1.000000
vn 0.000000 0.000000 1.000000
vn 0.000000 0.000000 1.000000
vn 0.000000 0.000000 1.000000
vn 0.000000 0.000000 1.000000
vn 0.000000 0.000000 1.000000
vn 0.000000 0.000000 1.000000
vn 0.000000 0.000000 1.000000
vn 0.000000 0.000000 1.000000
vn 0.000000 0.000000 1.000000
vn 0.000000 0.000000 1.000000
vn 0.000000 0.000000 1.000000
vn 0.000000 0.000000 1.000000
vn 0.000000 0.000000 1.000000
vn 0.000000 0.000000 1.000000
vn 0.000000 0.000000 1.000000
vn 0.000000 0.000000 1.000000
vn 0.000000 0.000000 1.000000
vn 0.000000 0.000000 1.000000
vn 0.000000 0.000000 1.000000
vn 0.000000 0.000000 1.000000
vn 0.000000 0.000000 1.000000
vn 0.000000 0.000000 1.000000
vn 0.000000 0.000000 1.000000
vn 0.000000 0.000000 1.000000
vn 0.000000 0.000000 1.000000
vn 0.000000 0.000000 1.000000
vn 0.000000 0.000000 1.000000
vn 0.000000 0.000000 1.000000
vn 0.000000 0.000000 1.000000
s off
g Mesh1
usemtl initialShadingGroup1
f 25/17/43 41/18/44 21/19/45
f 41/18/46 46/22/47 47/23/48 42/20/49 43/21/50 21/19/51
f 43/21/52 44/24/53 21/19/54
f 21/19/55 44/24/56 18/25/57
f 29/26/58 30/27/59 44/24/60
f 44/24/61 30/27/62 18/25/63
f 38/28/64 39/29/65 37/30/66
f 39/29/67 40/31/68 37/30/69
f 35/32/70 36/33/71 40/31/72
f 40/31/73 36/33/74 37/30/75
f 31/34/76 32/35/77 36/33/78
f 27/36/79 28/37/80 26/38/81
f 33/39/82 34/40/83 45/41/84
f 34/40/85 23/42/86 45/41/87
f 19/43/88 17/44/89 20/45/90
f 20/45/91 17/44/92 24/46/93
f 24/46/94 17/44/95 23/42/96
f 23/42/97 17/44/98 45/41/99
f 45/41/100 17/44/101 22/47/102
f 17/44/103 18/25/104 22/47/105
f 22/47/106 18/25/107 28/37/108
f 28/37/109 18/25/110 26/38/111
f 26/38/112 18/25/113 32/35/114
f 18/25/115 30/27/116 32/35/117
f 32/35/118 30/27/119 36/33/120
f 30/27/121 37/30/122 36/33/123
